# xmcd
# 
# Track frame offsets:
#     150
#     14300
#     27958
#     45687
#     60034
#     74272
#     90698
#     106736
#     123910
#     138119
#     153592
#     166662
#     182824
#     197367
# 
# Disc length: 2880
# 
# Revision: 5
# Processed by: cddbd v1.5.2PL0 Copyright (c) Steve Scherf et al.
# Submitted via: fre:ac v1.1beta1pre3
# 
DISCID=a40b3e0e
DTITLE=Terri Clark - Greatest Hits 1994-2004
DYEAR=2004
DGENRE=Country
TTITLE0=Better Things To Do
TTITLE1=When Boy Meets Girl
TTITLE2=If I Were You
TTITLE3=Poor, Poor Pitiful Me
TTITLE4=Emotional Girl
TTITLE5=Now That I Found You
TTITLE6=You're Easy On The Eyes
TTITLE7=Everytime I Cry
TTITLE8=A Little Gasoline
TTITLE9=I Just Wanna Be Mad
TTITLE10=I Wanna Do It All
TTITLE11=Girls Lie Too
TTITLE12=One Of The Guys
TTITLE13=No Fear ( Live Version )
EXTD=YEAR: 2004
EXTT0=
EXTT1=
EXTT2=
EXTT3=
EXTT4=
EXTT5=
EXTT6=
EXTT7=
EXTT8=
EXTT9=
EXTT10=
EXTT11=
EXTT12=
EXTT13=
PLAYORDER=
